<svg width="82" height="43" viewBox="0 0 82 43" fill="none" xmlns="http://www.w3.org/2000/svg">
<path fill-rule="evenodd" clip-rule="evenodd" d="M37.6698 0H43.7696V32.5345H37.5624V0.322411C37.5526 0.169345 37.5461 0.0195402 37.6698 0Z" fill="#FBFBFB"/>
<path fill-rule="evenodd" clip-rule="evenodd" d="M32.7462 23.6498H16.3714C17.0488 27.356 23.3245 28.5642 25.7898 25.6853C27.0144 26.9098 28.4278 28.2613 29.75 29.4305C26.1416 33.8954 17.7686 33.5665 13.6977 29.5379C11.7241 27.5872 10.3172 24.692 10.2716 21.5102C10.187 15.3192 14.8766 10.2257 20.9732 9.84466C24.2885 9.63623 27.1023 10.7924 28.8935 12.3067C31.6226 14.6157 33.0458 18.488 32.7462 23.6498ZM16.3714 18.8332H26.9655C25.8485 14.4985 17.5178 14.619 16.3714 18.8332Z" fill="#FBFBFB"/>
<path fill-rule="evenodd" clip-rule="evenodd" d="M59.1813 9.95222C66.3135 9.29437 71.4688 15.0001 71.4884 21.2953C71.5177 30.235 61.2428 36.3152 53.4039 30.7137C51.0818 29.0528 48.6491 26.0013 48.5872 21.5103C48.5156 16.2963 51.4857 12.74 55.0094 11.0237C56.1102 10.4863 57.4292 10.1151 59.1845 9.95222M55.5435 18.1917C55.156 18.7746 54.4753 20.7514 54.687 22.2593C55.5728 28.5741 65.4504 27.812 65.496 21.4028C65.5221 17.6901 62.6659 15.4137 58.9696 16.052C57.5008 16.306 56.1558 17.2765 55.5435 18.1917Z" fill="#FBFBFB"/>
<path d="M38.9472 42.2004C38.6606 42.3112 38.0874 42.474 37.4165 42.474C36.6675 42.474 36.0487 42.2819 35.5635 41.8194C35.1368 41.4058 34.873 40.7447 34.873 39.9729C34.873 38.4943 35.8957 37.4131 37.5566 37.4131C38.1298 37.4131 38.5857 37.5401 38.8006 37.6411L38.6378 38.1621C38.374 38.0384 38.0418 37.9505 37.5435 37.9505C36.3353 37.9505 35.5504 38.6995 35.5504 39.9436C35.5504 41.1876 36.2995 41.9432 37.4621 41.9432C37.8822 41.9432 38.1688 41.8845 38.3154 41.8096V40.3311H37.3156V39.8165H38.9472V42.2004Z" fill="#FBFBFB"/>
<path d="M43.5938 37.53C43.9162 37.4714 44.3884 37.4258 44.8215 37.4258C45.5054 37.4258 45.9549 37.5593 46.2545 37.8296C46.4987 38.0511 46.642 38.3898 46.642 38.7773C46.642 39.4254 46.2284 39.8585 45.7139 40.0344V40.0572C46.0884 40.1875 46.3164 40.5424 46.4336 41.057C46.5964 41.7474 46.7137 42.2262 46.8146 42.4183H46.1535C46.0721 42.2718 45.9614 41.8516 45.8279 41.2361C45.6813 40.5522 45.411 40.2949 44.828 40.2721H44.2256V42.4183H43.584V37.5267L43.5938 37.53ZM44.2353 39.7902H44.8899C45.5738 39.7902 46.007 39.4156 46.007 38.849C46.007 38.2106 45.5445 37.9306 44.8671 37.9306C44.5577 37.9306 44.3428 37.9534 44.2353 37.9827V39.7934V39.7902Z" fill="#FBFBFB"/>
<path d="M51.8659 37.4619V40.4027C51.8659 41.5068 52.3609 41.9757 53.022 41.9757C53.7515 41.9757 54.227 41.4905 54.227 40.4027V37.4619H54.8751V40.3604C54.8751 41.8845 54.0739 42.5 52.9992 42.5C51.9831 42.5 51.2178 41.9269 51.2178 40.3832V37.4619H51.8659Z" fill="#FBFBFB"/>
<path d="M59.6631 37.5235C59.9725 37.4714 60.3763 37.4258 60.8909 37.4258C61.5259 37.4258 61.9884 37.5723 62.2815 37.8394C62.5453 38.0739 62.7146 38.4354 62.7146 38.875C62.7146 39.3147 62.5844 39.6762 62.3336 39.9334C61.9884 40.2949 61.4413 40.4773 60.8192 40.4773C60.6271 40.4773 60.4512 40.4708 60.3047 40.435V42.4216H59.6663V37.5235H59.6631ZM60.3014 39.9139C60.4414 39.9497 60.6173 39.966 60.8323 39.966C61.6041 39.966 62.0763 39.5817 62.0763 38.9141C62.0763 38.2465 61.6041 37.9338 60.9071 37.9338C60.6271 37.9338 60.4154 37.9566 60.3047 37.9859V39.9139H60.3014Z" fill="#FBFBFB"/>
<path d="M71.4881 39.8915C71.4881 41.5915 70.4525 42.5001 69.1856 42.5001C67.9187 42.5001 66.958 41.4775 66.958 39.9761C66.958 38.4032 67.9285 37.374 69.254 37.374C70.5795 37.374 71.4881 38.4129 71.4881 39.8915ZM67.6354 39.9631C67.6354 41.0281 68.2086 41.979 69.2247 41.979C70.2408 41.979 70.8139 41.0443 70.8139 39.9208C70.8139 38.9275 70.2994 37.8984 69.2344 37.8984C68.1695 37.8984 67.6387 38.8851 67.6387 39.9631H67.6354Z" fill="#FBFBFB"/>
<path d="M20.6019 37.3546C16.8437 37.2048 13.0887 35.7588 10.1479 32.9776C7.15823 30.1508 5.61781 26.8876 5.13582 23.6504H0C0.537356 28.7113 2.92778 33.7527 7.70211 37.6705C11.5776 40.8523 16.1109 42.3829 20.6117 42.4611V37.6607L20.6019 37.3513V37.3546Z" fill="#FDB82C"/>
<path d="M61.0436 5.21393C64.7986 5.36048 68.5568 6.80972 71.5009 9.59094C74.4906 12.4178 76.0277 15.681 76.513 18.9182H81.6455C81.1082 13.8572 78.7178 8.81586 73.9467 4.89804C70.0712 1.71624 65.5379 0.185583 61.0371 0.107422V4.9078L61.0469 5.21719L61.0436 5.21393Z" fill="#FDB82C"/>
</svg>
